<svg xmlns="http://www.w3.org/2000/svg" viewBox="0 0 64.18 50.43"><defs><style>.cls-1{fill:#f0f0f0;}</style></defs><title>chaticon</title><g id="Laag_2" data-name="Laag 2"><g id="Laag_1-2" data-name="Laag 1"><path class="cls-1" d="M37.88,34.22a22.74,22.74,0,0,0,9.19-6.68,14.27,14.27,0,0,0,0-18.41,22.75,22.75,0,0,0-9.19-6.68A32.26,32.26,0,0,0,25.21,0,32.27,32.27,0,0,0,12.55,2.45,22.75,22.75,0,0,0,3.37,9.13,14.47,14.47,0,0,0,0,18.34a14.07,14.07,0,0,0,2.54,8,20.93,20.93,0,0,0,7,6.34q-.36.86-.73,1.58a9.08,9.08,0,0,1-.9,1.38l-.81,1q-.29.38-.93,1.06t-.82.9s0,0-.14.16S5,39,5,39s-.06,0-.14.18l-.13.2-.09.18a.77.77,0,0,0-.07.21,1.4,1.4,0,0,0,0,.23.72.72,0,0,0,0,.23A1.19,1.19,0,0,0,5,41a1.12,1.12,0,0,0,.73.29h.11A30,30,0,0,0,9,40.69a30.12,30.12,0,0,0,10-4.58,36,36,0,0,0,6.3.57A32.23,32.23,0,0,0,37.88,34.22Z"/><path class="cls-1" d="M61.64,35.55a14,14,0,0,0-.14-16.28,21.23,21.23,0,0,0-7.31-6.38,18.43,18.43,0,0,1-1.58,14.54A24,24,0,0,1,45.74,35a31.71,31.71,0,0,1-9.46,4.62,37.84,37.84,0,0,1-11.07,1.61q-1.07,0-3.15-.14A30.1,30.1,0,0,0,39,45.84a36,36,0,0,0,6.3-.57,28.6,28.6,0,0,0,13,5.16,1.08,1.08,0,0,0,.79-.25,1.32,1.32,0,0,0,.47-.79c0-.14,0-.22,0-.23s0-.09,0-.23l-.07-.22-.09-.18a1.72,1.72,0,0,0-.13-.2l-.14-.18L59,48l-.14-.16q-.18-.22-.82-.9t-.93-1.06l-.81-1a9.06,9.06,0,0,1-.9-1.38q-.38-.72-.73-1.58A21,21,0,0,0,61.64,35.55Z"/></g></g></svg>