<svg xmlns="http://www.w3.org/2000/svg" viewBox="0 0 51.24 55.9"><defs><style>.cls-1{fill:#f0f0f0;}</style></defs><title>profileicon</title><g id="Laag_2" data-name="Laag 2"><g id="Laag_1-2" data-name="Laag 1"><path class="cls-1" d="M25.62,27.95a13.46,13.46,0,0,0,9.88-4.09A13.46,13.46,0,0,0,39.6,14,13.47,13.47,0,0,0,35.5,4.09,13.47,13.47,0,0,0,25.62,0a13.46,13.46,0,0,0-9.88,4.09A13.46,13.46,0,0,0,11.65,14a13.46,13.46,0,0,0,4.09,9.88A13.47,13.47,0,0,0,25.62,27.95Z"/><path class="cls-1" d="M51.11,42.71a37.26,37.26,0,0,0-.51-4,30.86,30.86,0,0,0-1-3.95,18.73,18.73,0,0,0-1.57-3.55,12.78,12.78,0,0,0-2.26-2.95,9.5,9.5,0,0,0-3.11-1.95,10.94,10.94,0,0,0-4.06-.73,4.45,4.45,0,0,0-1.53.78l-2.71,1.75a17.21,17.21,0,0,1-3.93,1.75,15.47,15.47,0,0,1-9.72,0,17.21,17.21,0,0,1-3.93-1.75L14.12,26.4a4.45,4.45,0,0,0-1.53-.78,10.93,10.93,0,0,0-4.06.73,9.5,9.5,0,0,0-3.11,1.95,12.8,12.8,0,0,0-2.26,2.95A18.76,18.76,0,0,0,1.6,34.79a30.86,30.86,0,0,0-1,3.95,37,37,0,0,0-.51,4Q0,44.55,0,46.47a9.07,9.07,0,0,0,2.66,6.9A9.82,9.82,0,0,0,9.72,55.9H41.52a9.82,9.82,0,0,0,7.06-2.53,9.07,9.07,0,0,0,2.66-6.9Q51.24,44.54,51.11,42.71Z"/></g></g></svg>