<svg xmlns="http://www.w3.org/2000/svg" viewBox="0 0 94.44 35.95"><defs><style>.cls-1{fill:#4ab785;}</style></defs><title>RGlogo_1</title><g id="Laag_2" data-name="Laag 2"><g id="Laag_1-2" data-name="Laag 1"><path class="cls-1" d="M14.68,7.35l.2-.34A1.34,1.34,0,0,0,15,6.68q.12-.47.26-.94a5.16,5.16,0,0,0,.19-.94A2.19,2.19,0,0,0,15.39,4a2.61,2.61,0,0,0-.34-.72,2.28,2.28,0,0,0-.55-.58,2.15,2.15,0,0,0-.68-.34,8.2,8.2,0,0,0-1.26-.25q-.64-.08-1.29-.2a4.81,4.81,0,0,0-1.46,0,11.4,11.4,0,0,0-1.44.3,4.2,4.2,0,0,0-.66.25l-.64.3-.7.35-.7.38a11.11,11.11,0,0,0-1.17.82L3.67,5a5.12,5.12,0,0,0-.76.71,1.89,1.89,0,0,1-.61.52c-.22.12-.46.23-.71.33a1,1,0,0,1-1.14,0,1.34,1.34,0,0,1-.44-1A2.73,2.73,0,0,1,1.3,2.9q.57-.35,1.14-.73a5.47,5.47,0,0,1,1.19-.6L5.18,1A7,7,0,0,1,6.8.63Q7.43.55,8,.43L9.28.2a2.12,2.12,0,0,1,.56,0l.56,0,1.3,0A11.34,11.34,0,0,1,13,.2l1.29.12A3.85,3.85,0,0,1,15.5.68a8.46,8.46,0,0,0,.94.4,1.91,1.91,0,0,1,.84.6.68.68,0,0,0,.25.17,3.53,3.53,0,0,1,2,2.8q0,.38.09.76c0,.26,0,.51,0,.76a3.91,3.91,0,0,1-.36,1.67q-.36.78-.79,1.53a5.23,5.23,0,0,1-.75,1q-.43.44-.87.86t-1,.93a12,12,0,0,1-1,.9,5,5,0,0,1-.91.6l-1,.52c-.15.08-.23.16-.25.24a.45.45,0,0,0,.1.31,3.56,3.56,0,0,1,.3.59q.12.31.28.61t.26.52a3.44,3.44,0,0,0,.31.48.58.58,0,0,0,.34.26,1.1,1.1,0,0,0,.44,0,1.08,1.08,0,0,0,.44-.15,1.1,1.1,0,0,0,.36-.35l.25-.34.25-.34a.82.82,0,0,1,.26-.25.52.52,0,0,1,.36,0,1,1,0,0,1,.34.15.52.52,0,0,1,.19.33c0,.13.06.27.09.41s.05.28.09.41a.32.32,0,0,1,0,.3q-.37.6-.74,1.21a14.05,14.05,0,0,1-.79,1.19,6.31,6.31,0,0,1-1.71,1.56,3.57,3.57,0,0,1-2.31.44.5.5,0,0,0-.23,0,.53.53,0,0,1-.22,0,1.81,1.81,0,0,1-.86-.3,2.65,2.65,0,0,1-.64-.62L9.3,20.1q-.28-.37-.53-.77a6.33,6.33,0,0,1-.4-.79q-.18-.41-.37-.81l-.45-.84a1.9,1.9,0,0,0-.65-.69L6,17.56q-.42.66-.87,1.31a9.58,9.58,0,0,1-1.26,1.44,8.84,8.84,0,0,1-1.54,1.14,1,1,0,0,1-1,0,1.16,1.16,0,0,1-.65-.81,3.26,3.26,0,0,1,0-1.27q.12-.62.22-1.25a32.1,32.1,0,0,1,.6-3.2,32.55,32.55,0,0,1,.9-3.27q.35-1.05.7-2.06t.75-2a2.93,2.93,0,0,1,.41-.71c.18-.23.35-.45.51-.69A.89.89,0,0,1,5,5.94a1.64,1.64,0,0,0,.2-.21A3.85,3.85,0,0,1,6.6,4.43,7.39,7.39,0,0,1,8.43,3.8a2,2,0,0,1,.77,0L10,4a.3.3,0,0,1,.17.18,1.11,1.11,0,0,1,.1.27,2.34,2.34,0,0,1,0,1.13L10,6.63q-.28,1.1-.59,2.17T8.7,11a8.55,8.55,0,0,1-.3.89L8,12.78H8.2a.3.3,0,0,0,.15,0,12.12,12.12,0,0,0,2-.86,7.14,7.14,0,0,0,1.71-1.31q.45-.45.86-.92t.81-1a4.42,4.42,0,0,0,.41-.6l.39-.65ZM7.6,13.5s0,0,0,0Zm4.08,6.82v.08h0v-.08ZM15.25,1.1v0h0Z"/><path class="cls-1" d="M93.45,25.73q.95.33,1,.9a1.6,1.6,0,0,1-.71,1.22A7.83,7.83,0,0,1,91,29.18q-1.44.38-2.89.63l-.94.11-.94.14a28.25,28.25,0,0,1-5.44,0,33.94,33.94,0,0,1-5.44-.95l-2.61-.91a26,26,0,0,0-2.61-.79q-1.43-.4-2.85-.7t-2.85-.47q-2.5-.35-5-.53t-5-.17q-3.42,0-7.52.4-3.53.35-8.21,1.11A101.14,101.14,0,0,0,28.55,29.3a25.25,25.25,0,0,0-2.85,1,2.34,2.34,0,0,1-.19.39,2.22,2.22,0,0,0-.16.31q-.6.75-1.11,1.5T23.15,34a6,6,0,0,1-3.65,2,2.27,2.27,0,0,1-1.39-.12,2.17,2.17,0,0,1-1-.83,2.75,2.75,0,0,1-.41-1.25A2.47,2.47,0,0,1,17,32.33a6,6,0,0,1,1.5-1.84,6.88,6.88,0,0,1,2.15-1.19l.46-.19.67-.25.7-.27.54-.24a10.86,10.86,0,0,1,.39-1.65q.26-.82.54-1.65.4-1.23.74-2.48a22.52,22.52,0,0,1,.81-2.45.29.29,0,0,0,.06-.18c0-.08,0-.17,0-.25q-.5.38-1,.71a6.84,6.84,0,0,1-1.06.56,4.31,4.31,0,0,1-1.12.3,3.73,3.73,0,0,1-1.21-.05,4.05,4.05,0,0,1-2-.77,4.18,4.18,0,0,1-1.34-1.6,7.2,7.2,0,0,1-.7-2q-.2-1-.32-2.11a10.34,10.34,0,0,1,.09-2.43,15.25,15.25,0,0,1,.59-2.47,17.28,17.28,0,0,1,1-2.37,19.2,19.2,0,0,1,1.25-2.15,17.73,17.73,0,0,1,1.36-1.69,12.55,12.55,0,0,1,1.66-1.52A12.85,12.85,0,0,1,24.67.94a8.07,8.07,0,0,1,2-.74Q27.23.1,27.82,0A6.87,6.87,0,0,1,29,0,6.32,6.32,0,0,1,30.1.19a3.59,3.59,0,0,1,1,.41A2.08,2.08,0,0,1,32,1.71a3.67,3.67,0,0,1,.22,1.52,3.81,3.81,0,0,1-.41,1.5,2.46,2.46,0,0,1-1,1.06.76.76,0,0,1-1.1-.27,1.13,1.13,0,0,1-.21-.3,2,2,0,0,1-.14-.35q-.13-.65-.21-1.24a6.49,6.49,0,0,0-.29-1.16A.62.62,0,0,0,28.49,2a.62.62,0,0,0-.59.2,8,8,0,0,0-1.56,1.54A13.49,13.49,0,0,0,25.15,5.6a16.89,16.89,0,0,0-.92,2q-.4,1-.78,2.07-.5,1.6-1,3.29A15.38,15.38,0,0,0,22,16.4a3.75,3.75,0,0,0,.14,1,2.92,2.92,0,0,0,.44.92,1.28,1.28,0,0,0,1.63.35A4.84,4.84,0,0,0,26,17.19a7.38,7.38,0,0,0,1-2.06q.32-.83.6-1.7t.58-1.7a1,1,0,0,1,.34-.55l.54-.45a1.85,1.85,0,0,1,1-.39,3,3,0,0,1,1.19.06,2.13,2.13,0,0,1,1,.52,1,1,0,0,1,.29,1A40.75,40.75,0,0,1,31,17.34Q30.13,20,29,22.6q-.47,1.08-1,2.1t-1.06,2.13a.6.6,0,0,0-.07.16l-.11.3-.12.3a.76.76,0,0,1-.09.16l3.45-1q2.1-.59,4.86-1.19T41,24.45q3.35-.53,7.2-.85l1.91-.11q1-.06,1.91-.06,5.55-.25,11.13,0l1.3.14,1.33.14q3,.25,5.92.74t5.8.86a14,14,0,0,0,1.56.11,6.72,6.72,0,0,0,1.54-.15A5.85,5.85,0,0,0,82,24.74a4.53,4.53,0,0,0,1.3-1,1.4,1.4,0,0,1,.69-.39,2.75,2.75,0,0,1,.79-.06,5.18,5.18,0,0,1,.8.11l.75.16q1.88.42,3.64,1T93.45,25.73ZM24.73,19.55h-.08l0,0s0,0,0,.08l.08-.08Z"/></g></g></svg>